<?xml version="1.0" encoding="utf-8" standalone="no"?>
<!DOCTYPE svg PUBLIC "-//W3C//DTD SVG 1.1//EN"
  "http://www.w3.org/Graphics/SVG/1.1/DTD/svg11.dtd">
<svg xmlns:xlink="http://www.w3.org/1999/xlink" width="864pt" height="576pt" viewBox="0 0 864 576" xmlns="http://www.w3.org/2000/svg" version="1.1">
 <metadata>
  <rdf:RDF xmlns:dc="http://purl.org/dc/elements/1.1/" xmlns:cc="http://creativecommons.org/ns#" xmlns:rdf="http://www.w3.org/1999/02/22-rdf-syntax-ns#">
   <cc:Work>
    <dc:type rdf:resource="http://purl.org/dc/dcmitype/StillImage"/>
    <dc:date>2024-11-21T02:30:42.988568</dc:date>
    <dc:format>image/svg+xml</dc:format>
    <dc:creator>
     <cc:Agent>
      <dc:title>Matplotlib v3.8.4, https://matplotlib.org/</dc:title>
     </cc:Agent>
    </dc:creator>
   </cc:Work>
  </rdf:RDF>
 </metadata>
 <defs>
  <style type="text/css">*{stroke-linejoin: round; stroke-linecap: butt}</style>
 </defs>
 <g id="figure_1">
  <g id="patch_1">
   <path d="M 0 576 
L 864 576 
L 864 0 
L 0 0 
z
" style="fill: #ffffff"/>
  </g>
  <g id="axes_1">
   <g id="patch_2">
    <path d="M 50.6 531.16 
L 853.2 531.16 
L 853.2 27.6 
L 50.6 27.6 
z
" style="fill: #ffffff"/>
   </g>
   <g id="matplotlib.axis_1">
    <g id="xtick_1">
     <g id="line2d_1">
      <defs>
       <path id="m6f51d17a22" d="M 0 0 
L 0 3.5 
" style="stroke: #000000; stroke-width: 0.8"/>
      </defs>
      <g>
       <use xlink:href="#m6f51d17a22" x="50.6" y="531.16" style="stroke: #000000; stroke-width: 0.8"/>
      </g>
     </g>
     <g id="text_1">
      <!-- 0 -->
      <g transform="translate(47.41875 545.758438) scale(0.1 -0.1)">
       <defs>
        <path id="DejaVuSans-30" d="M 2034 4250 
Q 1547 4250 1301 3770 
Q 1056 3291 1056 2328 
Q 1056 1369 1301 889 
Q 1547 409 2034 409 
Q 2525 409 2770 889 
Q 3016 1369 3016 2328 
Q 3016 3291 2770 3770 
Q 2525 4250 2034 4250 
z
M 2034 4750 
Q 2819 4750 3233 4129 
Q 3647 3509 3647 2328 
Q 3647 1150 3233 529 
Q 2819 -91 2034 -91 
Q 1250 -91 836 529 
Q 422 1150 422 2328 
Q 422 3509 836 4129 
Q 1250 4750 2034 4750 
z
" transform="scale(0.015625)"/>
       </defs>
       <use xlink:href="#DejaVuSans-30"/>
      </g>
     </g>
    </g>
    <g id="xtick_2">
     <g id="line2d_2">
      <g>
       <use xlink:href="#m6f51d17a22" x="196.262432" y="531.16" style="stroke: #000000; stroke-width: 0.8"/>
      </g>
     </g>
     <g id="text_2">
      <!-- 100 -->
      <g transform="translate(186.718682 545.758438) scale(0.1 -0.1)">
       <defs>
        <path id="DejaVuSans-31" d="M 794 531 
L 1825 531 
L 1825 4091 
L 703 3866 
L 703 4441 
L 1819 4666 
L 2450 4666 
L 2450 531 
L 3481 531 
L 3481 0 
L 794 0 
L 794 531 
z
" transform="scale(0.015625)"/>
       </defs>
       <use xlink:href="#DejaVuSans-31"/>
       <use xlink:href="#DejaVuSans-30" x="63.623047"/>
       <use xlink:href="#DejaVuSans-30" x="127.246094"/>
      </g>
     </g>
    </g>
    <g id="xtick_3">
     <g id="line2d_3">
      <g>
       <use xlink:href="#m6f51d17a22" x="341.924864" y="531.16" style="stroke: #000000; stroke-width: 0.8"/>
      </g>
     </g>
     <g id="text_3">
      <!-- 200 -->
      <g transform="translate(332.381114 545.758438) scale(0.1 -0.1)">
       <defs>
        <path id="DejaVuSans-32" d="M 1228 531 
L 3431 531 
L 3431 0 
L 469 0 
L 469 531 
Q 828 903 1448 1529 
Q 2069 2156 2228 2338 
Q 2531 2678 2651 2914 
Q 2772 3150 2772 3378 
Q 2772 3750 2511 3984 
Q 2250 4219 1831 4219 
Q 1534 4219 1204 4116 
Q 875 4013 500 3803 
L 500 4441 
Q 881 4594 1212 4672 
Q 1544 4750 1819 4750 
Q 2544 4750 2975 4387 
Q 3406 4025 3406 3419 
Q 3406 3131 3298 2873 
Q 3191 2616 2906 2266 
Q 2828 2175 2409 1742 
Q 1991 1309 1228 531 
z
" transform="scale(0.015625)"/>
       </defs>
       <use xlink:href="#DejaVuSans-32"/>
       <use xlink:href="#DejaVuSans-30" x="63.623047"/>
       <use xlink:href="#DejaVuSans-30" x="127.246094"/>
      </g>
     </g>
    </g>
    <g id="xtick_4">
     <g id="line2d_4">
      <g>
       <use xlink:href="#m6f51d17a22" x="487.587296" y="531.16" style="stroke: #000000; stroke-width: 0.8"/>
      </g>
     </g>
     <g id="text_4">
      <!-- 300 -->
      <g transform="translate(478.043546 545.758438) scale(0.1 -0.1)">
       <defs>
        <path id="DejaVuSans-33" d="M 2597 2516 
Q 3050 2419 3304 2112 
Q 3559 1806 3559 1356 
Q 3559 666 3084 287 
Q 2609 -91 1734 -91 
Q 1441 -91 1130 -33 
Q 819 25 488 141 
L 488 750 
Q 750 597 1062 519 
Q 1375 441 1716 441 
Q 2309 441 2620 675 
Q 2931 909 2931 1356 
Q 2931 1769 2642 2001 
Q 2353 2234 1838 2234 
L 1294 2234 
L 1294 2753 
L 1863 2753 
Q 2328 2753 2575 2939 
Q 2822 3125 2822 3475 
Q 2822 3834 2567 4026 
Q 2313 4219 1838 4219 
Q 1578 4219 1281 4162 
Q 984 4106 628 3988 
L 628 4550 
Q 988 4650 1302 4700 
Q 1616 4750 1894 4750 
Q 2613 4750 3031 4423 
Q 3450 4097 3450 3541 
Q 3450 3153 3228 2886 
Q 3006 2619 2597 2516 
z
" transform="scale(0.015625)"/>
       </defs>
       <use xlink:href="#DejaVuSans-33"/>
       <use xlink:href="#DejaVuSans-30" x="63.623047"/>
       <use xlink:href="#DejaVuSans-30" x="127.246094"/>
      </g>
     </g>
    </g>
    <g id="xtick_5">
     <g id="line2d_5">
      <g>
       <use xlink:href="#m6f51d17a22" x="633.249728" y="531.16" style="stroke: #000000; stroke-width: 0.8"/>
      </g>
     </g>
     <g id="text_5">
      <!-- 400 -->
      <g transform="translate(623.705978 545.758438) scale(0.1 -0.1)">
       <defs>
        <path id="DejaVuSans-34" d="M 2419 4116 
L 825 1625 
L 2419 1625 
L 2419 4116 
z
M 2253 4666 
L 3047 4666 
L 3047 1625 
L 3713 1625 
L 3713 1100 
L 3047 1100 
L 3047 0 
L 2419 0 
L 2419 1100 
L 313 1100 
L 313 1709 
L 2253 4666 
z
" transform="scale(0.015625)"/>
       </defs>
       <use xlink:href="#DejaVuSans-34"/>
       <use xlink:href="#DejaVuSans-30" x="63.623047"/>
       <use xlink:href="#DejaVuSans-30" x="127.246094"/>
      </g>
     </g>
    </g>
    <g id="xtick_6">
     <g id="line2d_6">
      <g>
       <use xlink:href="#m6f51d17a22" x="778.91216" y="531.16" style="stroke: #000000; stroke-width: 0.8"/>
      </g>
     </g>
     <g id="text_6">
      <!-- 500 -->
      <g transform="translate(769.36841 545.758438) scale(0.1 -0.1)">
       <defs>
        <path id="DejaVuSans-35" d="M 691 4666 
L 3169 4666 
L 3169 4134 
L 1269 4134 
L 1269 2991 
Q 1406 3038 1543 3061 
Q 1681 3084 1819 3084 
Q 2600 3084 3056 2656 
Q 3513 2228 3513 1497 
Q 3513 744 3044 326 
Q 2575 -91 1722 -91 
Q 1428 -91 1123 -41 
Q 819 9 494 109 
L 494 744 
Q 775 591 1075 516 
Q 1375 441 1709 441 
Q 2250 441 2565 725 
Q 2881 1009 2881 1497 
Q 2881 1984 2565 2268 
Q 2250 2553 1709 2553 
Q 1456 2553 1204 2497 
Q 953 2441 691 2322 
L 691 4666 
z
" transform="scale(0.015625)"/>
       </defs>
       <use xlink:href="#DejaVuSans-35"/>
       <use xlink:href="#DejaVuSans-30" x="63.623047"/>
       <use xlink:href="#DejaVuSans-30" x="127.246094"/>
      </g>
     </g>
    </g>
    <g id="text_7">
     <!-- Frequency (Hz) -->
     <g transform="translate(406.654375 560.95625) scale(0.12 -0.12)">
      <defs>
       <path id="DejaVuSans-46" d="M 628 4666 
L 3309 4666 
L 3309 4134 
L 1259 4134 
L 1259 2759 
L 3109 2759 
L 3109 2228 
L 1259 2228 
L 1259 0 
L 628 0 
L 628 4666 
z
" transform="scale(0.015625)"/>
       <path id="DejaVuSans-72" d="M 2631 2963 
Q 2534 3019 2420 3045 
Q 2306 3072 2169 3072 
Q 1681 3072 1420 2755 
Q 1159 2438 1159 1844 
L 1159 0 
L 581 0 
L 581 3500 
L 1159 3500 
L 1159 2956 
Q 1341 3275 1631 3429 
Q 1922 3584 2338 3584 
Q 2397 3584 2469 3576 
Q 2541 3569 2628 3553 
L 2631 2963 
z
" transform="scale(0.015625)"/>
       <path id="DejaVuSans-65" d="M 3597 1894 
L 3597 1613 
L 953 1613 
Q 991 1019 1311 708 
Q 1631 397 2203 397 
Q 2534 397 2845 478 
Q 3156 559 3463 722 
L 3463 178 
Q 3153 47 2828 -22 
Q 2503 -91 2169 -91 
Q 1331 -91 842 396 
Q 353 884 353 1716 
Q 353 2575 817 3079 
Q 1281 3584 2069 3584 
Q 2775 3584 3186 3129 
Q 3597 2675 3597 1894 
z
M 3022 2063 
Q 3016 2534 2758 2815 
Q 2500 3097 2075 3097 
Q 1594 3097 1305 2825 
Q 1016 2553 972 2059 
L 3022 2063 
z
" transform="scale(0.015625)"/>
       <path id="DejaVuSans-71" d="M 947 1747 
Q 947 1113 1208 752 
Q 1469 391 1925 391 
Q 2381 391 2643 752 
Q 2906 1113 2906 1747 
Q 2906 2381 2643 2742 
Q 2381 3103 1925 3103 
Q 1469 3103 1208 2742 
Q 947 2381 947 1747 
z
M 2906 525 
Q 2725 213 2448 61 
Q 2172 -91 1784 -91 
Q 1150 -91 751 415 
Q 353 922 353 1747 
Q 353 2572 751 3078 
Q 1150 3584 1784 3584 
Q 2172 3584 2448 3432 
Q 2725 3281 2906 2969 
L 2906 3500 
L 3481 3500 
L 3481 -1331 
L 2906 -1331 
L 2906 525 
z
" transform="scale(0.015625)"/>
       <path id="DejaVuSans-75" d="M 544 1381 
L 544 3500 
L 1119 3500 
L 1119 1403 
Q 1119 906 1312 657 
Q 1506 409 1894 409 
Q 2359 409 2629 706 
Q 2900 1003 2900 1516 
L 2900 3500 
L 3475 3500 
L 3475 0 
L 2900 0 
L 2900 538 
Q 2691 219 2414 64 
Q 2138 -91 1772 -91 
Q 1169 -91 856 284 
Q 544 659 544 1381 
z
M 1991 3584 
L 1991 3584 
z
" transform="scale(0.015625)"/>
       <path id="DejaVuSans-6e" d="M 3513 2113 
L 3513 0 
L 2938 0 
L 2938 2094 
Q 2938 2591 2744 2837 
Q 2550 3084 2163 3084 
Q 1697 3084 1428 2787 
Q 1159 2491 1159 1978 
L 1159 0 
L 581 0 
L 581 3500 
L 1159 3500 
L 1159 2956 
Q 1366 3272 1645 3428 
Q 1925 3584 2291 3584 
Q 2894 3584 3203 3211 
Q 3513 2838 3513 2113 
z
" transform="scale(0.015625)"/>
       <path id="DejaVuSans-63" d="M 3122 3366 
L 3122 2828 
Q 2878 2963 2633 3030 
Q 2388 3097 2138 3097 
Q 1578 3097 1268 2742 
Q 959 2388 959 1747 
Q 959 1106 1268 751 
Q 1578 397 2138 397 
Q 2388 397 2633 464 
Q 2878 531 3122 666 
L 3122 134 
Q 2881 22 2623 -34 
Q 2366 -91 2075 -91 
Q 1284 -91 818 406 
Q 353 903 353 1747 
Q 353 2603 823 3093 
Q 1294 3584 2113 3584 
Q 2378 3584 2631 3529 
Q 2884 3475 3122 3366 
z
" transform="scale(0.015625)"/>
       <path id="DejaVuSans-79" d="M 2059 -325 
Q 1816 -950 1584 -1140 
Q 1353 -1331 966 -1331 
L 506 -1331 
L 506 -850 
L 844 -850 
Q 1081 -850 1212 -737 
Q 1344 -625 1503 -206 
L 1606 56 
L 191 3500 
L 800 3500 
L 1894 763 
L 2988 3500 
L 3597 3500 
L 2059 -325 
z
" transform="scale(0.015625)"/>
       <path id="DejaVuSans-20" transform="scale(0.015625)"/>
       <path id="DejaVuSans-28" d="M 1984 4856 
Q 1566 4138 1362 3434 
Q 1159 2731 1159 2009 
Q 1159 1288 1364 580 
Q 1569 -128 1984 -844 
L 1484 -844 
Q 1016 -109 783 600 
Q 550 1309 550 2009 
Q 550 2706 781 3412 
Q 1013 4119 1484 4856 
L 1984 4856 
z
" transform="scale(0.015625)"/>
       <path id="DejaVuSans-48" d="M 628 4666 
L 1259 4666 
L 1259 2753 
L 3553 2753 
L 3553 4666 
L 4184 4666 
L 4184 0 
L 3553 0 
L 3553 2222 
L 1259 2222 
L 1259 0 
L 628 0 
L 628 4666 
z
" transform="scale(0.015625)"/>
       <path id="DejaVuSans-7a" d="M 353 3500 
L 3084 3500 
L 3084 2975 
L 922 459 
L 3084 459 
L 3084 0 
L 275 0 
L 275 525 
L 2438 3041 
L 353 3041 
L 353 3500 
z
" transform="scale(0.015625)"/>
       <path id="DejaVuSans-29" d="M 513 4856 
L 1013 4856 
Q 1481 4119 1714 3412 
Q 1947 2706 1947 2009 
Q 1947 1309 1714 600 
Q 1481 -109 1013 -844 
L 513 -844 
Q 928 -128 1133 580 
Q 1338 1288 1338 2009 
Q 1338 2731 1133 3434 
Q 928 4138 513 4856 
z
" transform="scale(0.015625)"/>
      </defs>
      <use xlink:href="#DejaVuSans-46"/>
      <use xlink:href="#DejaVuSans-72" x="50.269531"/>
      <use xlink:href="#DejaVuSans-65" x="89.132812"/>
      <use xlink:href="#DejaVuSans-71" x="150.65625"/>
      <use xlink:href="#DejaVuSans-75" x="214.132812"/>
      <use xlink:href="#DejaVuSans-65" x="277.511719"/>
      <use xlink:href="#DejaVuSans-6e" x="339.035156"/>
      <use xlink:href="#DejaVuSans-63" x="402.414062"/>
      <use xlink:href="#DejaVuSans-79" x="457.394531"/>
      <use xlink:href="#DejaVuSans-20" x="516.574219"/>
      <use xlink:href="#DejaVuSans-28" x="548.361328"/>
      <use xlink:href="#DejaVuSans-48" x="587.375"/>
      <use xlink:href="#DejaVuSans-7a" x="662.570312"/>
      <use xlink:href="#DejaVuSans-29" x="715.060547"/>
     </g>
    </g>
   </g>
   <g id="matplotlib.axis_2">
    <g id="ytick_1">
     <g id="line2d_7">
      <defs>
       <path id="m72b87ac4e4" d="M 0 0 
L -3.5 0 
" style="stroke: #000000; stroke-width: 0.8"/>
      </defs>
      <g>
       <use xlink:href="#m72b87ac4e4" x="50.6" y="508.270909" style="stroke: #000000; stroke-width: 0.8"/>
      </g>
     </g>
     <g id="text_8">
      <!-- 0.0 -->
      <g transform="translate(27.696875 512.070128) scale(0.1 -0.1)">
       <defs>
        <path id="DejaVuSans-2e" d="M 684 794 
L 1344 794 
L 1344 0 
L 684 0 
L 684 794 
z
" transform="scale(0.015625)"/>
       </defs>
       <use xlink:href="#DejaVuSans-30"/>
       <use xlink:href="#DejaVuSans-2e" x="63.623047"/>
       <use xlink:href="#DejaVuSans-30" x="95.410156"/>
      </g>
     </g>
    </g>
    <g id="ytick_2">
     <g id="line2d_8">
      <g>
       <use xlink:href="#m72b87ac4e4" x="50.6" y="416.714541" style="stroke: #000000; stroke-width: 0.8"/>
      </g>
     </g>
     <g id="text_9">
      <!-- 0.1 -->
      <g transform="translate(27.696875 420.51376) scale(0.1 -0.1)">
       <use xlink:href="#DejaVuSans-30"/>
       <use xlink:href="#DejaVuSans-2e" x="63.623047"/>
       <use xlink:href="#DejaVuSans-31" x="95.410156"/>
      </g>
     </g>
    </g>
    <g id="ytick_3">
     <g id="line2d_9">
      <g>
       <use xlink:href="#m72b87ac4e4" x="50.6" y="325.158173" style="stroke: #000000; stroke-width: 0.8"/>
      </g>
     </g>
     <g id="text_10">
      <!-- 0.2 -->
      <g transform="translate(27.696875 328.957392) scale(0.1 -0.1)">
       <use xlink:href="#DejaVuSans-30"/>
       <use xlink:href="#DejaVuSans-2e" x="63.623047"/>
       <use xlink:href="#DejaVuSans-32" x="95.410156"/>
      </g>
     </g>
    </g>
    <g id="ytick_4">
     <g id="line2d_10">
      <g>
       <use xlink:href="#m72b87ac4e4" x="50.6" y="233.601805" style="stroke: #000000; stroke-width: 0.8"/>
      </g>
     </g>
     <g id="text_11">
      <!-- 0.3 -->
      <g transform="translate(27.696875 237.401024) scale(0.1 -0.1)">
       <use xlink:href="#DejaVuSans-30"/>
       <use xlink:href="#DejaVuSans-2e" x="63.623047"/>
       <use xlink:href="#DejaVuSans-33" x="95.410156"/>
      </g>
     </g>
    </g>
    <g id="ytick_5">
     <g id="line2d_11">
      <g>
       <use xlink:href="#m72b87ac4e4" x="50.6" y="142.045437" style="stroke: #000000; stroke-width: 0.8"/>
      </g>
     </g>
     <g id="text_12">
      <!-- 0.4 -->
      <g transform="translate(27.696875 145.844656) scale(0.1 -0.1)">
       <use xlink:href="#DejaVuSans-30"/>
       <use xlink:href="#DejaVuSans-2e" x="63.623047"/>
       <use xlink:href="#DejaVuSans-34" x="95.410156"/>
      </g>
     </g>
    </g>
    <g id="ytick_6">
     <g id="line2d_12">
      <g>
       <use xlink:href="#m72b87ac4e4" x="50.6" y="50.489069" style="stroke: #000000; stroke-width: 0.8"/>
      </g>
     </g>
     <g id="text_13">
      <!-- 0.5 -->
      <g transform="translate(27.696875 54.288288) scale(0.1 -0.1)">
       <use xlink:href="#DejaVuSans-30"/>
       <use xlink:href="#DejaVuSans-2e" x="63.623047"/>
       <use xlink:href="#DejaVuSans-35" x="95.410156"/>
      </g>
     </g>
    </g>
    <g id="text_14">
     <!-- Amplitude -->
     <g transform="translate(21.20125 310.127187) rotate(-90) scale(0.12 -0.12)">
      <defs>
       <path id="DejaVuSans-41" d="M 2188 4044 
L 1331 1722 
L 3047 1722 
L 2188 4044 
z
M 1831 4666 
L 2547 4666 
L 4325 0 
L 3669 0 
L 3244 1197 
L 1141 1197 
L 716 0 
L 50 0 
L 1831 4666 
z
" transform="scale(0.015625)"/>
       <path id="DejaVuSans-6d" d="M 3328 2828 
Q 3544 3216 3844 3400 
Q 4144 3584 4550 3584 
Q 5097 3584 5394 3201 
Q 5691 2819 5691 2113 
L 5691 0 
L 5113 0 
L 5113 2094 
Q 5113 2597 4934 2840 
Q 4756 3084 4391 3084 
Q 3944 3084 3684 2787 
Q 3425 2491 3425 1978 
L 3425 0 
L 2847 0 
L 2847 2094 
Q 2847 2600 2669 2842 
Q 2491 3084 2119 3084 
Q 1678 3084 1418 2786 
Q 1159 2488 1159 1978 
L 1159 0 
L 581 0 
L 581 3500 
L 1159 3500 
L 1159 2956 
Q 1356 3278 1631 3431 
Q 1906 3584 2284 3584 
Q 2666 3584 2933 3390 
Q 3200 3197 3328 2828 
z
" transform="scale(0.015625)"/>
       <path id="DejaVuSans-70" d="M 1159 525 
L 1159 -1331 
L 581 -1331 
L 581 3500 
L 1159 3500 
L 1159 2969 
Q 1341 3281 1617 3432 
Q 1894 3584 2278 3584 
Q 2916 3584 3314 3078 
Q 3713 2572 3713 1747 
Q 3713 922 3314 415 
Q 2916 -91 2278 -91 
Q 1894 -91 1617 61 
Q 1341 213 1159 525 
z
M 3116 1747 
Q 3116 2381 2855 2742 
Q 2594 3103 2138 3103 
Q 1681 3103 1420 2742 
Q 1159 2381 1159 1747 
Q 1159 1113 1420 752 
Q 1681 391 2138 391 
Q 2594 391 2855 752 
Q 3116 1113 3116 1747 
z
" transform="scale(0.015625)"/>
       <path id="DejaVuSans-6c" d="M 603 4863 
L 1178 4863 
L 1178 0 
L 603 0 
L 603 4863 
z
" transform="scale(0.015625)"/>
       <path id="DejaVuSans-69" d="M 603 3500 
L 1178 3500 
L 1178 0 
L 603 0 
L 603 3500 
z
M 603 4863 
L 1178 4863 
L 1178 4134 
L 603 4134 
L 603 4863 
z
" transform="scale(0.015625)"/>
       <path id="DejaVuSans-74" d="M 1172 4494 
L 1172 3500 
L 2356 3500 
L 2356 3053 
L 1172 3053 
L 1172 1153 
Q 1172 725 1289 603 
Q 1406 481 1766 481 
L 2356 481 
L 2356 0 
L 1766 0 
Q 1100 0 847 248 
Q 594 497 594 1153 
L 594 3053 
L 172 3053 
L 172 3500 
L 594 3500 
L 594 4494 
L 1172 4494 
z
" transform="scale(0.015625)"/>
       <path id="DejaVuSans-64" d="M 2906 2969 
L 2906 4863 
L 3481 4863 
L 3481 0 
L 2906 0 
L 2906 525 
Q 2725 213 2448 61 
Q 2172 -91 1784 -91 
Q 1150 -91 751 415 
Q 353 922 353 1747 
Q 353 2572 751 3078 
Q 1150 3584 1784 3584 
Q 2172 3584 2448 3432 
Q 2725 3281 2906 2969 
z
M 947 1747 
Q 947 1113 1208 752 
Q 1469 391 1925 391 
Q 2381 391 2643 752 
Q 2906 1113 2906 1747 
Q 2906 2381 2643 2742 
Q 2381 3103 1925 3103 
Q 1469 3103 1208 2742 
Q 947 2381 947 1747 
z
" transform="scale(0.015625)"/>
      </defs>
      <use xlink:href="#DejaVuSans-41"/>
      <use xlink:href="#DejaVuSans-6d" x="68.408203"/>
      <use xlink:href="#DejaVuSans-70" x="165.820312"/>
      <use xlink:href="#DejaVuSans-6c" x="229.296875"/>
      <use xlink:href="#DejaVuSans-69" x="257.080078"/>
      <use xlink:href="#DejaVuSans-74" x="284.863281"/>
      <use xlink:href="#DejaVuSans-75" x="324.072266"/>
      <use xlink:href="#DejaVuSans-64" x="387.451172"/>
      <use xlink:href="#DejaVuSans-65" x="450.927734"/>
     </g>
    </g>
   </g>
   <g id="line2d_13">
    <path d="M 50.6 499.968636 
L 52.057947 456.796961 
L 53.515895 230.575567 
L 54.973842 53.170998 
L 57.889737 468.328497 
L 59.347684 505.203859 
L 60.805631 507.719209 
L 65.179473 508.023333 
L 72.46921 508.173749 
L 92.880472 508.246206 
L 215.348047 508.268385 
L 852.471026 508.270259 
L 852.471026 508.270259 
" clip-path="url(#pd86cc99568)" style="fill: none; stroke: #1f77b4; stroke-width: 1.5; stroke-linecap: square"/>
   </g>
   <g id="line2d_14">
    <path d="M 50.6 506.769023 
L 52.057947 455.61912 
L 53.515895 231.561498 
L 54.973842 52.404838 
L 57.889737 467.826194 
L 59.347684 505.624352 
L 60.805631 508.069127 
L 65.179473 508.221061 
L 165.777838 508.250977 
L 852.471026 508.266399 
L 852.471026 508.266399 
" clip-path="url(#pd86cc99568)" style="fill: none; stroke-dasharray: 5.55,2.4; stroke-dashoffset: 0; stroke: #1f77b4; stroke-width: 1.5"/>
   </g>
   <g id="line2d_15">
    <path d="M 50.6 508.244573 
L 56.431789 508.248493 
L 57.889737 507.961164 
L 59.347684 503.946165 
L 60.805631 471.998559 
L 62.263579 349.164775 
L 63.721526 138.849171 
L 65.179473 55.215175 
L 66.637421 214.536721 
L 68.095368 407.680285 
L 69.553315 490.038682 
L 71.011262 506.540559 
L 72.46921 508.174375 
L 75.385104 508.265535 
L 256.170572 508.270072 
L 852.471026 508.27058 
L 852.471026 508.27058 
" clip-path="url(#pd86cc99568)" style="fill: none; stroke: #ff7f0e; stroke-width: 1.5; stroke-linecap: square"/>
   </g>
   <g id="line2d_16">
    <path d="M 50.6 508.253506 
L 56.431789 508.255479 
L 57.889737 507.969112 
L 59.347684 503.938817 
L 60.805631 472.00536 
L 62.263579 349.158455 
L 63.721526 138.855063 
L 65.179473 55.209663 
L 66.637421 214.541892 
L 68.095368 407.675421 
L 69.553315 490.043268 
L 71.011262 506.536223 
L 72.46921 508.178441 
L 75.385104 508.265951 
L 852.471026 508.270397 
L 852.471026 508.270397 
" clip-path="url(#pd86cc99568)" style="fill: none; stroke-dasharray: 5.55,2.4; stroke-dashoffset: 0; stroke: #ff7f0e; stroke-width: 1.5"/>
   </g>
   <g id="line2d_17">
    <path d="M 50.6 508.270886 
L 68.095368 508.200231 
L 69.553315 507.548764 
L 71.011262 503.103576 
L 72.46921 482.39923 
L 73.927157 417.625386 
L 75.385104 286.030502 
L 76.843052 126.979536 
L 78.300999 50.50101 
L 79.758946 123.684065 
L 81.216894 282.172288 
L 82.674841 415.254689 
L 84.132788 481.493138 
L 85.590736 502.876381 
L 87.048683 507.510495 
L 88.50663 508.195845 
L 91.422525 508.270621 
L 709.592189 508.270909 
L 852.471026 508.270909 
L 852.471026 508.270909 
" clip-path="url(#pd86cc99568)" style="fill: none; stroke: #2ca02c; stroke-width: 1.5; stroke-linecap: square"/>
   </g>
   <g id="line2d_18">
    <path d="M 50.6 508.270908 
L 68.095368 508.20024 
L 69.553315 507.548756 
L 71.011262 503.103584 
L 72.46921 482.399223 
L 73.927157 417.625393 
L 75.385104 286.030496 
L 76.843052 126.979542 
L 78.300999 50.501004 
L 79.758946 123.684071 
L 81.216894 282.172282 
L 82.674841 415.254694 
L 84.132788 481.493134 
L 85.590736 502.876385 
L 87.048683 507.51049 
L 88.50663 508.195849 
L 91.422525 508.270625 
L 709.592189 508.270909 
L 852.471026 508.270909 
L 852.471026 508.270909 
" clip-path="url(#pd86cc99568)" style="fill: none; stroke-dasharray: 5.55,2.4; stroke-dashoffset: 0; stroke: #2ca02c; stroke-width: 1.5"/>
   </g>
   <g id="line2d_19">
    <path d="M 50.6 508.270909 
L 82.674841 508.18974 
L 84.132788 507.800016 
L 85.590736 506.03391 
L 87.048683 499.568862 
L 88.50663 480.551156 
L 89.964578 435.965706 
L 91.422525 353.830116 
L 94.33842 121.384195 
L 95.796367 54.524567 
L 97.254314 72.503507 
L 98.712262 165.575234 
L 100.170209 287.584905 
L 101.628156 391.897638 
L 103.086104 458.019994 
L 104.544051 490.502564 
L 106.001998 503.126183 
L 107.459946 507.051106 
L 108.917893 508.034083 
L 110.37584 508.233258 
L 116.207629 508.270906 
L 852.471026 508.270909 
L 852.471026 508.270909 
" clip-path="url(#pd86cc99568)" style="fill: none; stroke: #d62728; stroke-width: 1.5; stroke-linecap: square"/>
   </g>
   <g id="line2d_20">
    <path d="M 50.6 508.270909 
L 82.674841 508.18974 
L 84.132788 507.800016 
L 85.590736 506.03391 
L 87.048683 499.568862 
L 88.50663 480.551156 
L 89.964578 435.965706 
L 91.422525 353.830116 
L 94.33842 121.384195 
L 95.796367 54.524567 
L 97.254314 72.503507 
L 98.712262 165.575234 
L 100.170209 287.584905 
L 101.628156 391.897638 
L 103.086104 458.019994 
L 104.544051 490.502564 
L 106.001998 503.126183 
L 107.459946 507.051106 
L 108.917893 508.034083 
L 110.37584 508.233258 
L 116.207629 508.270906 
L 852.471026 508.270909 
L 852.471026 508.270909 
" clip-path="url(#pd86cc99568)" style="fill: none; stroke-dasharray: 5.55,2.4; stroke-dashoffset: 0; stroke: #d62728; stroke-width: 1.5"/>
   </g>
   <g id="line2d_21">
    <path d="M 50.6 508.270909 
L 101.628156 508.217027 
L 103.086104 508.059548 
L 104.544051 507.52955 
L 106.001998 505.945762 
L 107.459946 501.750246 
L 108.917893 491.919605 
L 110.37584 471.607539 
L 111.833787 434.7634 
L 113.291735 376.490642 
L 114.749682 297.024956 
L 117.665577 120.189841 
L 119.123524 63.518306 
L 120.581471 52.513347 
L 122.039419 90.663101 
L 123.497366 166.116076 
L 126.413261 344.064976 
L 127.871208 412.087329 
L 129.329155 457.8939 
L 130.787103 484.67791 
L 132.24505 498.390992 
L 133.702997 504.571412 
L 135.160945 507.032251 
L 136.618892 507.900075 
L 138.076839 508.171637 
L 140.992734 508.265823 
L 181.815259 508.270909 
L 852.471026 508.270909 
L 852.471026 508.270909 
" clip-path="url(#pd86cc99568)" style="fill: none; stroke: #9467bd; stroke-width: 1.5; stroke-linecap: square"/>
   </g>
   <g id="line2d_22">
    <path d="M 50.6 508.270909 
L 101.628156 508.217027 
L 103.086104 508.059548 
L 104.544051 507.52955 
L 106.001998 505.945762 
L 107.459946 501.750246 
L 108.917893 491.919605 
L 110.37584 471.607539 
L 111.833787 434.7634 
L 113.291735 376.490642 
L 114.749682 297.024956 
L 117.665577 120.189841 
L 119.123524 63.518306 
L 120.581471 52.513347 
L 122.039419 90.663101 
L 123.497366 166.116076 
L 126.413261 344.064976 
L 127.871208 412.087329 
L 129.329155 457.8939 
L 130.787103 484.67791 
L 132.24505 498.390992 
L 133.702997 504.571412 
L 135.160945 507.032251 
L 136.618892 507.900075 
L 138.076839 508.171637 
L 140.992734 508.265823 
L 181.815259 508.270909 
L 852.471026 508.270909 
L 852.471026 508.270909 
" clip-path="url(#pd86cc99568)" style="fill: none; stroke-dasharray: 5.55,2.4; stroke-dashoffset: 0; stroke: #9467bd; stroke-width: 1.5"/>
   </g>
   <g id="line2d_23">
    <path d="M 50.6 508.270909 
L 127.871208 508.19437 
L 129.329155 508.060286 
L 130.787103 507.726485 
L 132.24505 506.949085 
L 133.702997 505.2564 
L 135.160945 501.813391 
L 136.618892 495.277562 
L 138.076839 483.713491 
L 139.534787 464.674506 
L 140.992734 435.572499 
L 142.450681 394.401925 
L 143.908629 340.741033 
L 145.366576 276.752582 
L 148.28247 141.841391 
L 149.740418 88.606229 
L 151.198365 56.809457 
L 152.656312 52.081482 
L 154.11426 75.282726 
L 155.572207 122.24793 
L 157.030154 185.007492 
L 159.946049 320.398838 
L 161.403996 377.886854 
L 162.861944 423.275977 
L 164.319891 456.227245 
L 165.777838 478.337996 
L 167.235786 492.099927 
L 168.693733 500.064936 
L 170.15168 504.359529 
L 171.609628 506.519707 
L 173.067575 507.53445 
L 174.525522 507.979993 
L 175.98347 508.162966 
L 180.357312 508.267122 
L 241.591099 508.270909 
L 852.471026 508.270909 
L 852.471026 508.270909 
" clip-path="url(#pd86cc99568)" style="fill: none; stroke: #8c564b; stroke-width: 1.5; stroke-linecap: square"/>
   </g>
   <g id="line2d_24">
    <path d="M 50.6 508.270909 
L 127.871208 508.19437 
L 129.329155 508.060286 
L 130.787103 507.726485 
L 132.24505 506.949085 
L 133.702997 505.2564 
L 135.160945 501.813391 
L 136.618892 495.277562 
L 138.076839 483.713491 
L 139.534787 464.674506 
L 140.992734 435.572499 
L 142.450681 394.401925 
L 143.908629 340.741033 
L 145.366576 276.752582 
L 148.28247 141.841391 
L 149.740418 88.606229 
L 151.198365 56.809457 
L 152.656312 52.081482 
L 154.11426 75.282726 
L 155.572207 122.24793 
L 157.030154 185.007492 
L 159.946049 320.398838 
L 161.403996 377.886854 
L 162.861944 423.275977 
L 164.319891 456.227245 
L 165.777838 478.337996 
L 167.235786 492.099927 
L 168.693733 500.064936 
L 170.15168 504.359529 
L 171.609628 506.519707 
L 173.067575 507.53445 
L 174.525522 507.979993 
L 175.98347 508.162966 
L 180.357312 508.267122 
L 241.591099 508.270909 
L 852.471026 508.270909 
L 852.471026 508.270909 
" clip-path="url(#pd86cc99568)" style="fill: none; stroke-dasharray: 5.55,2.4; stroke-dashoffset: 0; stroke: #8c564b; stroke-width: 1.5"/>
   </g>
   <g id="line2d_25">
    <path d="M 50.6 508.270909 
L 162.861944 508.176205 
L 165.777838 507.858102 
L 167.235786 507.453193 
L 168.693733 506.706913 
L 170.15168 505.38258 
L 171.609628 503.120572 
L 173.067575 499.403381 
L 174.525522 493.529213 
L 175.98347 484.607885 
L 177.441417 471.595837 
L 178.899364 453.386418 
L 180.357312 428.964873 
L 181.815259 397.62362 
L 183.273206 359.213612 
L 184.731153 314.386164 
L 190.562943 117.353908 
L 192.02089 81.529665 
L 193.478837 58.467634 
L 194.936785 50.489091 
L 196.394732 58.416068 
L 197.852679 81.431814 
L 199.310627 117.219446 
L 200.768574 162.34621 
L 205.142416 314.230519 
L 206.600363 359.076851 
L 208.058311 397.509404 
L 209.516258 428.873908 
L 210.974205 453.317165 
L 212.432153 471.545351 
L 213.8901 484.572595 
L 215.348047 493.505535 
L 216.805995 499.38812 
L 218.263942 503.111117 
L 219.721889 505.376946 
L 221.179837 506.703683 
L 222.637784 507.45141 
L 224.095731 507.857154 
L 227.011626 508.175965 
L 231.385468 508.262885 
L 267.834151 508.270909 
L 852.471026 508.270909 
L 852.471026 508.270909 
" clip-path="url(#pd86cc99568)" style="fill: none; stroke: #e377c2; stroke-width: 1.5; stroke-linecap: square"/>
   </g>
   <g id="line2d_26">
    <path d="M 50.6 508.270909 
L 162.861944 508.176205 
L 165.777838 507.858102 
L 167.235786 507.453193 
L 168.693733 506.706913 
L 170.15168 505.38258 
L 171.609628 503.120572 
L 173.067575 499.403381 
L 174.525522 493.529213 
L 175.98347 484.607885 
L 177.441417 471.595837 
L 178.899364 453.386418 
L 180.357312 428.964873 
L 181.815259 397.62362 
L 183.273206 359.213612 
L 184.731153 314.386164 
L 190.562943 117.353908 
L 192.02089 81.529665 
L 193.478837 58.467634 
L 194.936785 50.489091 
L 196.394732 58.416068 
L 197.852679 81.431814 
L 199.310627 117.219446 
L 200.768574 162.34621 
L 205.142416 314.230519 
L 206.600363 359.076851 
L 208.058311 397.509404 
L 209.516258 428.873908 
L 210.974205 453.317165 
L 212.432153 471.545351 
L 213.8901 484.572595 
L 215.348047 493.505535 
L 216.805995 499.38812 
L 218.263942 503.111117 
L 219.721889 505.376946 
L 221.179837 506.703683 
L 222.637784 507.45141 
L 224.095731 507.857154 
L 227.011626 508.175965 
L 231.385468 508.262885 
L 267.834151 508.270909 
L 852.471026 508.270909 
L 852.471026 508.270909 
" clip-path="url(#pd86cc99568)" style="fill: none; stroke-dasharray: 5.55,2.4; stroke-dashoffset: 0; stroke: #e377c2; stroke-width: 1.5"/>
   </g>
   <g id="line2d_27">
    <path d="M 50.6 508.270909 
L 209.516258 508.164885 
L 212.432153 507.950165 
L 213.8901 507.729214 
L 215.348047 507.37383 
L 216.805995 506.814158 
L 218.263942 505.951275 
L 219.721889 504.649041 
L 221.179837 502.725609 
L 222.637784 499.945669 
L 224.095731 496.014939 
L 225.553678 490.578871 
L 227.011626 483.227857 
L 228.469573 473.511221 
L 229.92752 460.961914 
L 231.385468 445.132911 
L 232.843415 425.644834 
L 234.301362 402.242396 
L 235.75931 374.855053 
L 237.217257 343.655131 
L 240.133152 271.985354 
L 244.506994 157.535203 
L 245.964941 123.573395 
L 247.422888 94.520905 
L 248.880836 71.920012 
L 250.338783 57.025323 
L 251.79673 50.688529 
L 253.254678 53.277768 
L 254.712625 64.642205 
L 256.170572 84.126586 
L 257.62852 110.633797 
L 259.086467 142.727133 
L 262.002361 217.010098 
L 264.918256 293.714425 
L 266.376203 329.461535 
L 267.834151 362.148051 
L 269.292098 391.179438 
L 270.750045 416.265874 
L 272.207993 437.382184 
L 273.66594 454.713204 
L 275.123887 468.593254 
L 276.581835 479.44724 
L 278.039782 487.738886 
L 279.497729 493.929445 
L 280.955677 498.448129 
L 282.413624 501.673785 
L 283.871571 503.926267 
L 285.329519 505.465264 
L 286.787466 506.494305 
L 288.245413 507.167777 
L 289.703361 507.599258 
L 292.619255 508.036154 
L 296.993097 508.229038 
L 307.198728 508.270532 
L 852.471026 508.270909 
L 852.471026 508.270909 
" clip-path="url(#pd86cc99568)" style="fill: none; stroke: #7f7f7f; stroke-width: 1.5; stroke-linecap: square"/>
   </g>
   <g id="line2d_28">
    <path d="M 50.6 508.270909 
L 209.516258 508.164885 
L 212.432153 507.950165 
L 213.8901 507.729214 
L 215.348047 507.37383 
L 216.805995 506.814158 
L 218.263942 505.951275 
L 219.721889 504.649041 
L 221.179837 502.725609 
L 222.637784 499.945669 
L 224.095731 496.014939 
L 225.553678 490.578871 
L 227.011626 483.227857 
L 228.469573 473.511221 
L 229.92752 460.961914 
L 231.385468 445.132911 
L 232.843415 425.644834 
L 234.301362 402.242396 
L 235.75931 374.855053 
L 237.217257 343.655131 
L 240.133152 271.985354 
L 244.506994 157.535203 
L 245.964941 123.573395 
L 247.422888 94.520905 
L 248.880836 71.920012 
L 250.338783 57.025323 
L 251.79673 50.688529 
L 253.254678 53.277768 
L 254.712625 64.642205 
L 256.170572 84.126586 
L 257.62852 110.633797 
L 259.086467 142.727133 
L 262.002361 217.010098 
L 264.918256 293.714425 
L 266.376203 329.461535 
L 267.834151 362.148051 
L 269.292098 391.179438 
L 270.750045 416.265874 
L 272.207993 437.382184 
L 273.66594 454.713204 
L 275.123887 468.593254 
L 276.581835 479.44724 
L 278.039782 487.738886 
L 279.497729 493.929445 
L 280.955677 498.448129 
L 282.413624 501.673785 
L 283.871571 503.926267 
L 285.329519 505.465264 
L 286.787466 506.494305 
L 288.245413 507.167777 
L 289.703361 507.599258 
L 292.619255 508.036154 
L 296.993097 508.229038 
L 307.198728 508.270532 
L 852.471026 508.270909 
L 852.471026 508.270909 
" clip-path="url(#pd86cc99568)" style="fill: none; stroke-dasharray: 5.55,2.4; stroke-dashoffset: 0; stroke: #7f7f7f; stroke-width: 1.5"/>
   </g>
   <g id="line2d_29">
    <path d="M 50.6 508.270909 
L 270.750045 508.188183 
L 275.123887 507.98047 
L 278.039782 507.635847 
L 279.497729 507.347185 
L 280.955677 506.941988 
L 282.413624 506.379933 
L 283.871571 505.609551 
L 285.329519 504.566225 
L 286.787466 503.170216 
L 288.245413 501.324862 
L 289.703361 498.915203 
L 291.161308 495.807242 
L 292.619255 491.848175 
L 294.077203 486.86787 
L 295.53515 480.681917 
L 296.993097 473.096518 
L 298.451045 463.915384 
L 299.908992 452.948734 
L 301.366939 440.02429 
L 302.824886 424.999979 
L 304.282834 407.77785 
L 305.740781 388.318465 
L 307.198728 366.654848 
L 308.656676 342.904879 
L 311.57257 290.095893 
L 318.862307 148.328153 
L 320.320254 123.31565 
L 321.778202 101.061826 
L 323.236149 82.226339 
L 324.694096 67.388276 
L 326.152044 57.016636 
L 327.609991 51.44572 
L 329.067938 50.857243 
L 330.525886 55.270486 
L 331.983833 64.541249 
L 333.44178 78.369678 
L 334.899728 96.316365 
L 336.357675 117.825532 
L 337.815622 142.253577 
L 340.731517 197.04516 
L 346.563306 311.034174 
L 349.479201 361.267901 
L 350.937148 383.434578 
L 352.395095 403.416632 
L 353.853043 421.162179 
L 355.31099 436.694881 
L 356.768937 450.100263 
L 358.226885 461.511334 
L 359.684832 471.094486 
L 361.142779 479.036452 
L 362.600727 485.532879 
L 364.058674 490.778846 
L 365.516621 494.961475 
L 366.974569 498.254581 
L 368.432516 500.815219 
L 369.890463 502.781854 
L 371.348411 504.273877 
L 372.806358 505.392132 
L 374.264305 506.220177 
L 375.722252 506.826001 
L 377.1802 507.263973 
L 380.096094 507.79774 
L 383.011989 508.058119 
L 387.385831 508.21181 
L 397.591462 508.268884 
L 595.872298 508.270909 
L 852.471026 508.270909 
L 852.471026 508.270909 
" clip-path="url(#pd86cc99568)" style="fill: none; stroke: #bcbd22; stroke-width: 1.5; stroke-linecap: square"/>
   </g>
   <g id="line2d_30">
    <path d="M 50.6 508.270909 
L 270.750045 508.188183 
L 275.123887 507.98047 
L 278.039782 507.635847 
L 279.497729 507.347185 
L 280.955677 506.941988 
L 282.413624 506.379933 
L 283.871571 505.609551 
L 285.329519 504.566225 
L 286.787466 503.170216 
L 288.245413 501.324862 
L 289.703361 498.915203 
L 291.161308 495.807242 
L 292.619255 491.848175 
L 294.077203 486.86787 
L 295.53515 480.681917 
L 296.993097 473.096518 
L 298.451045 463.915384 
L 299.908992 452.948734 
L 301.366939 440.02429 
L 302.824886 424.999979 
L 304.282834 407.77785 
L 305.740781 388.318465 
L 307.198728 366.654848 
L 308.656676 342.904879 
L 311.57257 290.095893 
L 318.862307 148.328153 
L 320.320254 123.31565 
L 321.778202 101.061826 
L 323.236149 82.226339 
L 324.694096 67.388276 
L 326.152044 57.016636 
L 327.609991 51.44572 
L 329.067938 50.857243 
L 330.525886 55.270486 
L 331.983833 64.541249 
L 333.44178 78.369678 
L 334.899728 96.316365 
L 336.357675 117.825532 
L 337.815622 142.253577 
L 340.731517 197.04516 
L 346.563306 311.034174 
L 349.479201 361.267901 
L 350.937148 383.434578 
L 352.395095 403.416632 
L 353.853043 421.162179 
L 355.31099 436.694881 
L 356.768937 450.100263 
L 358.226885 461.511334 
L 359.684832 471.094486 
L 361.142779 479.036452 
L 362.600727 485.532879 
L 364.058674 490.778846 
L 365.516621 494.961475 
L 366.974569 498.254581 
L 368.432516 500.815219 
L 369.890463 502.781854 
L 371.348411 504.273877 
L 372.806358 505.392132 
L 374.264305 506.220177 
L 375.722252 506.826001 
L 377.1802 507.263973 
L 380.096094 507.79774 
L 383.011989 508.058119 
L 387.385831 508.21181 
L 397.591462 508.268884 
L 595.872298 508.270909 
L 852.471026 508.270909 
L 852.471026 508.270909 
" clip-path="url(#pd86cc99568)" style="fill: none; stroke-dasharray: 5.55,2.4; stroke-dashoffset: 0; stroke: #bcbd22; stroke-width: 1.5"/>
   </g>
   <g id="line2d_31">
    <path d="M 50.6 508.270909 
L 353.853043 508.18005 
L 359.684832 507.955103 
L 364.058674 507.517248 
L 366.974569 506.965746 
L 369.890463 506.065579 
L 371.348411 505.43055 
L 372.806358 504.635083 
L 374.264305 503.645363 
L 375.722252 502.422294 
L 377.1802 500.921147 
L 378.638147 499.091312 
L 380.096094 496.876178 
L 381.554042 494.213195 
L 383.011989 491.034157 
L 384.469936 487.265733 
L 385.927884 482.830309 
L 387.385831 477.647149 
L 388.843778 471.633917 
L 390.301726 464.708564 
L 391.759673 456.791586 
L 393.21762 447.808627 
L 394.675568 437.693392 
L 396.133515 426.39081 
L 397.591462 413.860369 
L 399.04941 400.07951 
L 400.507357 385.046958 
L 403.423252 351.346564 
L 406.339146 313.283724 
L 409.255041 271.873692 
L 416.544777 164.704671 
L 419.460672 126.090267 
L 420.918619 108.884766 
L 422.376567 93.462609 
L 423.834514 80.085347 
L 425.292461 68.985541 
L 426.750409 60.360048 
L 428.208356 54.364218 
L 429.666303 51.107235 
L 431.124251 50.64882 
L 432.582198 52.997399 
L 434.040145 58.109853 
L 435.498093 65.892832 
L 436.95604 76.205588 
L 438.413987 88.864214 
L 439.871935 103.647089 
L 441.329882 120.301335 
L 444.245777 158.099628 
L 447.161671 199.892525 
L 454.451408 306.726928 
L 457.367302 345.418139 
L 460.283197 379.878006 
L 461.741144 395.314948 
L 463.199092 409.504917 
L 464.657039 422.441555 
L 466.114986 434.140842 
L 467.572934 444.63781 
L 469.030881 453.983152 
L 470.488828 462.239862 
L 471.946776 469.48 
L 473.404723 475.781697 
L 474.86267 481.226434 
L 476.320618 485.896681 
L 477.778565 489.87388 
L 479.236512 493.236807 
L 480.69446 496.060298 
L 482.152407 498.414302 
L 483.610354 500.363255 
L 485.068302 501.965722 
L 486.526249 503.274265 
L 487.984196 504.335508 
L 489.442144 505.190348 
L 490.900091 505.874281 
L 493.815985 506.846834 
L 496.73188 507.445279 
L 499.647775 507.803864 
L 504.021617 508.081153 
L 511.311353 508.23351 
L 530.264668 508.270642 
L 852.471026 508.270909 
L 852.471026 508.270909 
" clip-path="url(#pd86cc99568)" style="fill: none; stroke: #17becf; stroke-width: 1.5; stroke-linecap: square"/>
   </g>
   <g id="line2d_32">
    <path d="M 50.6 508.270909 
L 353.853043 508.18005 
L 359.684832 507.955103 
L 364.058674 507.517248 
L 366.974569 506.965746 
L 369.890463 506.065579 
L 371.348411 505.43055 
L 372.806358 504.635083 
L 374.264305 503.645363 
L 375.722252 502.422294 
L 377.1802 500.921147 
L 378.638147 499.091312 
L 380.096094 496.876178 
L 381.554042 494.213195 
L 383.011989 491.034157 
L 384.469936 487.265733 
L 385.927884 482.830309 
L 387.385831 477.647149 
L 388.843778 471.633917 
L 390.301726 464.708564 
L 391.759673 456.791586 
L 393.21762 447.808627 
L 394.675568 437.693392 
L 396.133515 426.39081 
L 397.591462 413.860369 
L 399.04941 400.07951 
L 400.507357 385.046958 
L 403.423252 351.346564 
L 406.339146 313.283724 
L 409.255041 271.873692 
L 416.544777 164.704671 
L 419.460672 126.090267 
L 420.918619 108.884766 
L 422.376567 93.462609 
L 423.834514 80.085347 
L 425.292461 68.985541 
L 426.750409 60.360048 
L 428.208356 54.364218 
L 429.666303 51.107235 
L 431.124251 50.64882 
L 432.582198 52.997399 
L 434.040145 58.109853 
L 435.498093 65.892832 
L 436.95604 76.205588 
L 438.413987 88.864214 
L 439.871935 103.647089 
L 441.329882 120.301335 
L 444.245777 158.099628 
L 447.161671 199.892525 
L 454.451408 306.726928 
L 457.367302 345.418139 
L 460.283197 379.878006 
L 461.741144 395.314948 
L 463.199092 409.504917 
L 464.657039 422.441555 
L 466.114986 434.140842 
L 467.572934 444.63781 
L 469.030881 453.983152 
L 470.488828 462.239862 
L 471.946776 469.48 
L 473.404723 475.781697 
L 474.86267 481.226434 
L 476.320618 485.896681 
L 477.778565 489.87388 
L 479.236512 493.236807 
L 480.69446 496.060298 
L 482.152407 498.414302 
L 483.610354 500.363255 
L 485.068302 501.965722 
L 486.526249 503.274265 
L 487.984196 504.335508 
L 489.442144 505.190348 
L 490.900091 505.874281 
L 493.815985 506.846834 
L 496.73188 507.445279 
L 499.647775 507.803864 
L 504.021617 508.081153 
L 511.311353 508.23351 
L 530.264668 508.270642 
L 852.471026 508.270909 
L 852.471026 508.270909 
" clip-path="url(#pd86cc99568)" style="fill: none; stroke-dasharray: 5.55,2.4; stroke-dashoffset: 0; stroke: #17becf; stroke-width: 1.5"/>
   </g>
   <g id="line2d_33">
    <path d="M 50.6 508.270909 
L 464.657039 508.177749 
L 471.946776 507.971851 
L 476.320618 507.693164 
L 480.69446 507.188811 
L 483.610354 506.654762 
L 486.526249 505.89014 
L 489.442144 504.811709 
L 492.358038 503.313485 
L 493.815985 502.366797 
L 495.273933 501.263483 
L 496.73188 499.982561 
L 498.189827 498.50117 
L 499.647775 496.794568 
L 501.105722 494.836164 
L 502.563669 492.597592 
L 504.021617 490.04883 
L 505.479564 487.158372 
L 506.937511 483.89345 
L 508.395459 480.220322 
L 509.853406 476.104618 
L 511.311353 471.511755 
L 512.769301 466.407408 
L 514.227248 460.758058 
L 515.685195 454.531592 
L 517.143143 447.697963 
L 518.60109 440.229898 
L 520.059037 432.103651 
L 521.516985 423.299779 
L 524.432879 403.607697 
L 527.348774 381.114356 
L 530.264668 355.898806 
L 533.180563 328.179002 
L 536.096458 298.326187 
L 540.4703 250.750057 
L 547.760036 170.38642 
L 550.675931 140.57471 
L 553.591826 113.602786 
L 555.049773 101.488874 
L 556.50772 90.443444 
L 557.965668 80.572425 
L 559.423615 71.972185 
L 560.881562 64.727958 
L 562.33951 58.912445 
L 563.797457 54.584596 
L 565.255404 51.788617 
L 566.713351 50.553219 
L 568.171299 50.891123 
L 569.629246 52.798847 
L 571.087193 56.256765 
L 572.545141 61.229439 
L 574.003088 67.666229 
L 575.461035 75.502146 
L 576.918983 84.65895 
L 578.37693 95.046445 
L 579.834877 106.563961 
L 582.750772 132.543828 
L 585.666667 161.647668 
L 590.040509 208.957106 
L 597.330245 289.485354 
L 600.24614 319.856572 
L 603.162035 348.229902 
L 606.077929 374.188864 
L 608.993824 397.472888 
L 611.909718 417.965159 
L 614.825613 435.673549 
L 616.28356 443.514643 
L 617.741508 450.707265 
L 619.199455 457.27677 
L 620.657402 463.251711 
L 622.11535 468.663106 
L 623.573297 473.54375 
L 625.031244 477.927577 
L 626.489192 481.849086 
L 627.947139 485.342823 
L 629.405086 488.442936 
L 630.863034 491.182786 
L 632.320981 493.594632 
L 633.778928 495.709367 
L 635.236876 497.556321 
L 636.694823 499.163108 
L 638.15277 500.555533 
L 639.610718 501.757532 
L 641.068665 502.791159 
L 643.984559 504.432189 
L 646.900454 505.618539 
L 649.816349 506.463303 
L 652.732243 507.055855 
L 657.106085 507.618343 
L 661.479927 507.931125 
L 668.769664 508.164017 
L 681.89119 508.260176 
L 750.414714 508.270909 
L 852.471026 508.270909 
L 852.471026 508.270909 
" clip-path="url(#pd86cc99568)" style="fill: none; stroke: #1f77b4; stroke-width: 1.5; stroke-linecap: square"/>
   </g>
   <g id="line2d_34">
    <path d="M 50.6 508.270909 
L 464.657039 508.177749 
L 471.946776 507.971851 
L 476.320618 507.693164 
L 480.69446 507.188811 
L 483.610354 506.654762 
L 486.526249 505.89014 
L 489.442144 504.811709 
L 492.358038 503.313485 
L 493.815985 502.366797 
L 495.273933 501.263483 
L 496.73188 499.982561 
L 498.189827 498.50117 
L 499.647775 496.794568 
L 501.105722 494.836164 
L 502.563669 492.597592 
L 504.021617 490.04883 
L 505.479564 487.158372 
L 506.937511 483.89345 
L 508.395459 480.220322 
L 509.853406 476.104618 
L 511.311353 471.511755 
L 512.769301 466.407408 
L 514.227248 460.758058 
L 515.685195 454.531592 
L 517.143143 447.697963 
L 518.60109 440.229898 
L 520.059037 432.103651 
L 521.516985 423.299779 
L 524.432879 403.607697 
L 527.348774 381.114356 
L 530.264668 355.898806 
L 533.180563 328.179002 
L 536.096458 298.326187 
L 540.4703 250.750057 
L 547.760036 170.38642 
L 550.675931 140.57471 
L 553.591826 113.602786 
L 555.049773 101.488874 
L 556.50772 90.443444 
L 557.965668 80.572425 
L 559.423615 71.972185 
L 560.881562 64.727958 
L 562.33951 58.912445 
L 563.797457 54.584596 
L 565.255404 51.788617 
L 566.713351 50.553219 
L 568.171299 50.891123 
L 569.629246 52.798847 
L 571.087193 56.256765 
L 572.545141 61.229439 
L 574.003088 67.666229 
L 575.461035 75.502146 
L 576.918983 84.65895 
L 578.37693 95.046445 
L 579.834877 106.563961 
L 582.750772 132.543828 
L 585.666667 161.647668 
L 590.040509 208.957106 
L 597.330245 289.485354 
L 600.24614 319.856572 
L 603.162035 348.229902 
L 606.077929 374.188864 
L 608.993824 397.472888 
L 611.909718 417.965159 
L 614.825613 435.673549 
L 616.28356 443.514643 
L 617.741508 450.707265 
L 619.199455 457.27677 
L 620.657402 463.251711 
L 622.11535 468.663106 
L 623.573297 473.54375 
L 625.031244 477.927577 
L 626.489192 481.849086 
L 627.947139 485.342823 
L 629.405086 488.442936 
L 630.863034 491.182786 
L 632.320981 493.594632 
L 633.778928 495.709367 
L 635.236876 497.556321 
L 636.694823 499.163108 
L 638.15277 500.555533 
L 639.610718 501.757532 
L 641.068665 502.791159 
L 643.984559 504.432189 
L 646.900454 505.618539 
L 649.816349 506.463303 
L 652.732243 507.055855 
L 657.106085 507.618343 
L 661.479927 507.931125 
L 668.769664 508.164017 
L 681.89119 508.260176 
L 750.414714 508.270909 
L 852.471026 508.270909 
L 852.471026 508.270909 
" clip-path="url(#pd86cc99568)" style="fill: none; stroke-dasharray: 5.55,2.4; stroke-dashoffset: 0; stroke: #1f77b4; stroke-width: 1.5"/>
   </g>
   <g id="line2d_35">
    <path d="M 50.6 508.270909 
L 613.367666 508.168534 
L 623.573297 507.926748 
L 629.405086 507.611351 
L 633.778928 507.218131 
L 638.15277 506.619359 
L 641.068665 506.062503 
L 643.984559 505.340557 
L 646.900454 504.412445 
L 649.816349 503.229374 
L 652.732243 501.734113 
L 655.648138 499.860429 
L 658.564033 497.532736 
L 661.479927 494.66606 
L 662.937875 493.001559 
L 664.395822 491.166392 
L 665.853769 489.147535 
L 667.311717 486.931536 
L 668.769664 484.504573 
L 670.227611 481.852526 
L 671.685559 478.961053 
L 673.143506 475.815689 
L 676.059401 468.705412 
L 678.975295 460.407632 
L 681.89119 450.814037 
L 684.807084 439.826926 
L 687.722979 427.364614 
L 690.638874 413.36722 
L 693.554768 397.802622 
L 696.470663 380.672316 
L 699.386558 362.01686 
L 702.302452 341.920585 
L 705.218347 320.515201 
L 709.592189 286.362804 
L 715.423978 238.351185 
L 722.713715 178.100045 
L 727.087557 144.18619 
L 730.003451 123.387875 
L 732.919346 104.524357 
L 735.835241 87.987129 
L 737.293188 80.703411 
L 738.751135 74.130535 
L 740.209083 68.304923 
L 741.66703 63.259172 
L 743.124977 59.02176 
L 744.582925 55.616768 
L 746.040872 53.063662 
L 747.498819 51.3771 
L 748.956767 50.566796 
L 750.414714 50.637426 
L 751.872661 51.588582 
L 753.330609 53.414777 
L 754.788556 56.105497 
L 756.246503 59.645302 
L 757.70445 64.013976 
L 759.162398 69.186713 
L 760.620345 75.13436 
L 762.078292 81.823683 
L 763.53624 89.217681 
L 766.452134 105.954925 
L 769.368029 124.988294 
L 772.283924 145.923898 
L 775.199818 168.345236 
L 779.57366 203.833109 
L 791.237239 299.824978 
L 795.611081 333.085428 
L 798.526975 353.751564 
L 801.44287 373.026906 
L 804.358765 390.8079 
L 807.274659 407.036556 
L 810.190554 421.696211 
L 813.106449 434.806416 
L 816.022343 446.417293 
L 818.938238 456.603695 
L 821.854133 465.459459 
L 824.770027 473.091985 
L 827.685922 479.61734 
L 830.601817 485.15602 
L 833.517711 489.829409 
L 836.433606 493.756935 
L 839.3495 497.053736 
L 842.265395 499.828326 
L 845.18129 502.178548 
L 848.097184 504.178696 
L 851.013079 505.816503 
L 852.471026 506.396906 
L 852.471026 506.396906 
" clip-path="url(#pd86cc99568)" style="fill: none; stroke: #ff7f0e; stroke-width: 1.5; stroke-linecap: square"/>
   </g>
   <g id="line2d_36">
    <path d="M 50.6 508.270909 
L 613.367666 508.168534 
L 623.573297 507.926748 
L 629.405086 507.611351 
L 633.778928 507.218131 
L 638.15277 506.619359 
L 641.068665 506.062503 
L 643.984559 505.340557 
L 646.900454 504.412445 
L 649.816349 503.229374 
L 652.732243 501.734113 
L 655.648138 499.860429 
L 658.564033 497.532736 
L 661.479927 494.66606 
L 662.937875 493.001559 
L 664.395822 491.166392 
L 665.853769 489.147535 
L 667.311717 486.931536 
L 668.769664 484.504573 
L 670.227611 481.852526 
L 671.685559 478.961053 
L 673.143506 475.815689 
L 676.059401 468.705412 
L 678.975295 460.407632 
L 681.89119 450.814037 
L 684.807084 439.826926 
L 687.722979 427.364614 
L 690.638874 413.36722 
L 693.554768 397.802622 
L 696.470663 380.672316 
L 699.386558 362.01686 
L 702.302452 341.920585 
L 705.218347 320.515201 
L 709.592189 286.362804 
L 715.423978 238.351185 
L 722.713715 178.100045 
L 727.087557 144.18619 
L 730.003451 123.387875 
L 732.919346 104.524357 
L 735.835241 87.987129 
L 737.293188 80.703411 
L 738.751135 74.130535 
L 740.209083 68.304922 
L 741.66703 63.259172 
L 743.124977 59.021759 
L 744.582925 55.616767 
L 746.040872 53.063661 
L 747.498819 51.377098 
L 748.956767 50.566794 
L 750.414714 50.637424 
L 751.872661 51.588579 
L 753.330609 53.414772 
L 754.788556 56.105491 
L 756.246503 59.645295 
L 757.70445 64.013966 
L 759.162398 69.186701 
L 760.620345 75.134344 
L 762.078292 81.823662 
L 763.53624 89.217654 
L 766.452134 105.954879 
L 769.368029 124.988218 
L 772.283924 145.923773 
L 775.199818 168.345033 
L 779.57366 203.832693 
L 791.237239 299.822392 
L 795.611081 333.080456 
L 798.526975 353.743951 
L 801.44287 373.01534 
L 804.358765 390.790462 
L 807.274659 407.010465 
L 810.190554 421.657475 
L 813.106449 434.749347 
L 816.022343 446.333859 
L 818.938238 456.482655 
L 821.854133 465.285209 
L 824.770027 472.843058 
L 827.685922 479.264464 
L 829.143869 482.083482 
L 830.601817 484.659629 
L 832.059764 487.006299 
L 833.517711 489.136513 
L 834.975658 491.062826 
L 836.433606 492.797233 
L 837.891553 494.351077 
L 839.3495 495.734972 
L 840.807448 496.958717 
L 842.265395 498.031218 
L 843.723342 498.960413 
L 845.18129 499.753194 
L 846.639237 500.415359 
L 848.097184 500.95158 
L 849.555132 501.365425 
L 851.013079 501.659431 
L 852.471026 501.83524 
L 852.471026 501.83524 
" clip-path="url(#pd86cc99568)" style="fill: none; stroke-dasharray: 5.55,2.4; stroke-dashoffset: 0; stroke: #ff7f0e; stroke-width: 1.5"/>
   </g>
   <g id="patch_3">
    <path d="M 50.6 531.16 
L 50.6 27.6 
" style="fill: none; stroke: #000000; stroke-width: 0.8; stroke-linejoin: miter; stroke-linecap: square"/>
   </g>
   <g id="patch_4">
    <path d="M 853.2 531.16 
L 853.2 27.6 
" style="fill: none; stroke: #000000; stroke-width: 0.8; stroke-linejoin: miter; stroke-linecap: square"/>
   </g>
   <g id="patch_5">
    <path d="M 50.6 531.16 
L 853.2 531.16 
" style="fill: none; stroke: #000000; stroke-width: 0.8; stroke-linejoin: miter; stroke-linecap: square"/>
   </g>
   <g id="patch_6">
    <path d="M 50.6 27.6 
L 853.2 27.6 
" style="fill: none; stroke: #000000; stroke-width: 0.8; stroke-linejoin: miter; stroke-linecap: square"/>
   </g>
   <g id="text_15">
    <!-- Gabor Filters Spectrum -->
    <g transform="translate(359.968125 21.6) scale(0.14 -0.14)">
     <defs>
      <path id="DejaVuSans-Bold-47" d="M 4781 347 
Q 4331 128 3847 18 
Q 3363 -91 2847 -91 
Q 1681 -91 1000 561 
Q 319 1213 319 2328 
Q 319 3456 1012 4103 
Q 1706 4750 2913 4750 
Q 3378 4750 3804 4662 
Q 4231 4575 4609 4403 
L 4609 3438 
Q 4219 3659 3833 3768 
Q 3447 3878 3059 3878 
Q 2341 3878 1952 3476 
Q 1563 3075 1563 2328 
Q 1563 1588 1938 1184 
Q 2313 781 3003 781 
Q 3191 781 3352 804 
Q 3513 828 3641 878 
L 3641 1784 
L 2906 1784 
L 2906 2591 
L 4781 2591 
L 4781 347 
z
" transform="scale(0.015625)"/>
      <path id="DejaVuSans-Bold-61" d="M 2106 1575 
Q 1756 1575 1579 1456 
Q 1403 1338 1403 1106 
Q 1403 894 1545 773 
Q 1688 653 1941 653 
Q 2256 653 2472 879 
Q 2688 1106 2688 1447 
L 2688 1575 
L 2106 1575 
z
M 3816 1997 
L 3816 0 
L 2688 0 
L 2688 519 
Q 2463 200 2181 54 
Q 1900 -91 1497 -91 
Q 953 -91 614 226 
Q 275 544 275 1050 
Q 275 1666 698 1953 
Q 1122 2241 2028 2241 
L 2688 2241 
L 2688 2328 
Q 2688 2594 2478 2717 
Q 2269 2841 1825 2841 
Q 1466 2841 1156 2769 
Q 847 2697 581 2553 
L 581 3406 
Q 941 3494 1303 3539 
Q 1666 3584 2028 3584 
Q 2975 3584 3395 3211 
Q 3816 2838 3816 1997 
z
" transform="scale(0.015625)"/>
      <path id="DejaVuSans-Bold-62" d="M 2400 722 
Q 2759 722 2948 984 
Q 3138 1247 3138 1747 
Q 3138 2247 2948 2509 
Q 2759 2772 2400 2772 
Q 2041 2772 1848 2508 
Q 1656 2244 1656 1747 
Q 1656 1250 1848 986 
Q 2041 722 2400 722 
z
M 1656 2988 
Q 1888 3294 2169 3439 
Q 2450 3584 2816 3584 
Q 3463 3584 3878 3070 
Q 4294 2556 4294 1747 
Q 4294 938 3878 423 
Q 3463 -91 2816 -91 
Q 2450 -91 2169 54 
Q 1888 200 1656 506 
L 1656 0 
L 538 0 
L 538 4863 
L 1656 4863 
L 1656 2988 
z
" transform="scale(0.015625)"/>
      <path id="DejaVuSans-Bold-6f" d="M 2203 2784 
Q 1831 2784 1636 2517 
Q 1441 2250 1441 1747 
Q 1441 1244 1636 976 
Q 1831 709 2203 709 
Q 2569 709 2762 976 
Q 2956 1244 2956 1747 
Q 2956 2250 2762 2517 
Q 2569 2784 2203 2784 
z
M 2203 3584 
Q 3106 3584 3614 3096 
Q 4122 2609 4122 1747 
Q 4122 884 3614 396 
Q 3106 -91 2203 -91 
Q 1297 -91 786 396 
Q 275 884 275 1747 
Q 275 2609 786 3096 
Q 1297 3584 2203 3584 
z
" transform="scale(0.015625)"/>
      <path id="DejaVuSans-Bold-72" d="M 3138 2547 
Q 2991 2616 2845 2648 
Q 2700 2681 2553 2681 
Q 2122 2681 1889 2404 
Q 1656 2128 1656 1613 
L 1656 0 
L 538 0 
L 538 3500 
L 1656 3500 
L 1656 2925 
Q 1872 3269 2151 3426 
Q 2431 3584 2822 3584 
Q 2878 3584 2943 3579 
Q 3009 3575 3134 3559 
L 3138 2547 
z
" transform="scale(0.015625)"/>
      <path id="DejaVuSans-Bold-20" transform="scale(0.015625)"/>
      <path id="DejaVuSans-Bold-46" d="M 588 4666 
L 3834 4666 
L 3834 3756 
L 1791 3756 
L 1791 2888 
L 3713 2888 
L 3713 1978 
L 1791 1978 
L 1791 0 
L 588 0 
L 588 4666 
z
" transform="scale(0.015625)"/>
      <path id="DejaVuSans-Bold-69" d="M 538 3500 
L 1656 3500 
L 1656 0 
L 538 0 
L 538 3500 
z
M 538 4863 
L 1656 4863 
L 1656 3950 
L 538 3950 
L 538 4863 
z
" transform="scale(0.015625)"/>
      <path id="DejaVuSans-Bold-6c" d="M 538 4863 
L 1656 4863 
L 1656 0 
L 538 0 
L 538 4863 
z
" transform="scale(0.015625)"/>
      <path id="DejaVuSans-Bold-74" d="M 1759 4494 
L 1759 3500 
L 2913 3500 
L 2913 2700 
L 1759 2700 
L 1759 1216 
Q 1759 972 1856 886 
Q 1953 800 2241 800 
L 2816 800 
L 2816 0 
L 1856 0 
Q 1194 0 917 276 
Q 641 553 641 1216 
L 641 2700 
L 84 2700 
L 84 3500 
L 641 3500 
L 641 4494 
L 1759 4494 
z
" transform="scale(0.015625)"/>
      <path id="DejaVuSans-Bold-65" d="M 4031 1759 
L 4031 1441 
L 1416 1441 
Q 1456 1047 1700 850 
Q 1944 653 2381 653 
Q 2734 653 3104 758 
Q 3475 863 3866 1075 
L 3866 213 
Q 3469 63 3072 -14 
Q 2675 -91 2278 -91 
Q 1328 -91 801 392 
Q 275 875 275 1747 
Q 275 2603 792 3093 
Q 1309 3584 2216 3584 
Q 3041 3584 3536 3087 
Q 4031 2591 4031 1759 
z
M 2881 2131 
Q 2881 2450 2695 2645 
Q 2509 2841 2209 2841 
Q 1884 2841 1681 2658 
Q 1478 2475 1428 2131 
L 2881 2131 
z
" transform="scale(0.015625)"/>
      <path id="DejaVuSans-Bold-73" d="M 3272 3391 
L 3272 2541 
Q 2913 2691 2578 2766 
Q 2244 2841 1947 2841 
Q 1628 2841 1473 2761 
Q 1319 2681 1319 2516 
Q 1319 2381 1436 2309 
Q 1553 2238 1856 2203 
L 2053 2175 
Q 2913 2066 3209 1816 
Q 3506 1566 3506 1031 
Q 3506 472 3093 190 
Q 2681 -91 1863 -91 
Q 1516 -91 1145 -36 
Q 775 19 384 128 
L 384 978 
Q 719 816 1070 734 
Q 1422 653 1784 653 
Q 2113 653 2278 743 
Q 2444 834 2444 1013 
Q 2444 1163 2330 1236 
Q 2216 1309 1875 1350 
L 1678 1375 
Q 931 1469 631 1722 
Q 331 1975 331 2491 
Q 331 3047 712 3315 
Q 1094 3584 1881 3584 
Q 2191 3584 2531 3537 
Q 2872 3491 3272 3391 
z
" transform="scale(0.015625)"/>
      <path id="DejaVuSans-Bold-53" d="M 3834 4519 
L 3834 3531 
Q 3450 3703 3084 3790 
Q 2719 3878 2394 3878 
Q 1963 3878 1756 3759 
Q 1550 3641 1550 3391 
Q 1550 3203 1689 3098 
Q 1828 2994 2194 2919 
L 2706 2816 
Q 3484 2659 3812 2340 
Q 4141 2022 4141 1434 
Q 4141 663 3683 286 
Q 3225 -91 2284 -91 
Q 1841 -91 1394 -6 
Q 947 78 500 244 
L 500 1259 
Q 947 1022 1364 901 
Q 1781 781 2169 781 
Q 2563 781 2772 912 
Q 2981 1044 2981 1288 
Q 2981 1506 2839 1625 
Q 2697 1744 2272 1838 
L 1806 1941 
Q 1106 2091 782 2419 
Q 459 2747 459 3303 
Q 459 4000 909 4375 
Q 1359 4750 2203 4750 
Q 2588 4750 2994 4692 
Q 3400 4634 3834 4519 
z
" transform="scale(0.015625)"/>
      <path id="DejaVuSans-Bold-70" d="M 1656 506 
L 1656 -1331 
L 538 -1331 
L 538 3500 
L 1656 3500 
L 1656 2988 
Q 1888 3294 2169 3439 
Q 2450 3584 2816 3584 
Q 3463 3584 3878 3070 
Q 4294 2556 4294 1747 
Q 4294 938 3878 423 
Q 3463 -91 2816 -91 
Q 2450 -91 2169 54 
Q 1888 200 1656 506 
z
M 2400 2772 
Q 2041 2772 1848 2508 
Q 1656 2244 1656 1747 
Q 1656 1250 1848 986 
Q 2041 722 2400 722 
Q 2759 722 2948 984 
Q 3138 1247 3138 1747 
Q 3138 2247 2948 2509 
Q 2759 2772 2400 2772 
z
" transform="scale(0.015625)"/>
      <path id="DejaVuSans-Bold-63" d="M 3366 3391 
L 3366 2478 
Q 3138 2634 2908 2709 
Q 2678 2784 2431 2784 
Q 1963 2784 1702 2511 
Q 1441 2238 1441 1747 
Q 1441 1256 1702 982 
Q 1963 709 2431 709 
Q 2694 709 2930 787 
Q 3166 866 3366 1019 
L 3366 103 
Q 3103 6 2833 -42 
Q 2563 -91 2291 -91 
Q 1344 -91 809 395 
Q 275 881 275 1747 
Q 275 2613 809 3098 
Q 1344 3584 2291 3584 
Q 2566 3584 2833 3536 
Q 3100 3488 3366 3391 
z
" transform="scale(0.015625)"/>
      <path id="DejaVuSans-Bold-75" d="M 500 1363 
L 500 3500 
L 1625 3500 
L 1625 3150 
Q 1625 2866 1622 2436 
Q 1619 2006 1619 1863 
Q 1619 1441 1641 1255 
Q 1663 1069 1716 984 
Q 1784 875 1895 815 
Q 2006 756 2150 756 
Q 2500 756 2700 1025 
Q 2900 1294 2900 1772 
L 2900 3500 
L 4019 3500 
L 4019 0 
L 2900 0 
L 2900 506 
Q 2647 200 2364 54 
Q 2081 -91 1741 -91 
Q 1134 -91 817 281 
Q 500 653 500 1363 
z
" transform="scale(0.015625)"/>
      <path id="DejaVuSans-Bold-6d" d="M 3781 2919 
Q 3994 3244 4286 3414 
Q 4578 3584 4928 3584 
Q 5531 3584 5847 3212 
Q 6163 2841 6163 2131 
L 6163 0 
L 5038 0 
L 5038 1825 
Q 5041 1866 5042 1909 
Q 5044 1953 5044 2034 
Q 5044 2406 4934 2573 
Q 4825 2741 4581 2741 
Q 4263 2741 4089 2478 
Q 3916 2216 3909 1719 
L 3909 0 
L 2784 0 
L 2784 1825 
Q 2784 2406 2684 2573 
Q 2584 2741 2328 2741 
Q 2006 2741 1831 2477 
Q 1656 2213 1656 1722 
L 1656 0 
L 531 0 
L 531 3500 
L 1656 3500 
L 1656 2988 
Q 1863 3284 2130 3434 
Q 2397 3584 2719 3584 
Q 3081 3584 3359 3409 
Q 3638 3234 3781 2919 
z
" transform="scale(0.015625)"/>
     </defs>
     <use xlink:href="#DejaVuSans-Bold-47"/>
     <use xlink:href="#DejaVuSans-Bold-61" x="82.080078"/>
     <use xlink:href="#DejaVuSans-Bold-62" x="149.560547"/>
     <use xlink:href="#DejaVuSans-Bold-6f" x="221.142578"/>
     <use xlink:href="#DejaVuSans-Bold-72" x="289.84375"/>
     <use xlink:href="#DejaVuSans-Bold-20" x="339.160156"/>
     <use xlink:href="#DejaVuSans-Bold-46" x="373.974609"/>
     <use xlink:href="#DejaVuSans-Bold-69" x="442.285156"/>
     <use xlink:href="#DejaVuSans-Bold-6c" x="476.5625"/>
     <use xlink:href="#DejaVuSans-Bold-74" x="510.839844"/>
     <use xlink:href="#DejaVuSans-Bold-65" x="558.642578"/>
     <use xlink:href="#DejaVuSans-Bold-72" x="626.464844"/>
     <use xlink:href="#DejaVuSans-Bold-73" x="675.78125"/>
     <use xlink:href="#DejaVuSans-Bold-20" x="735.302734"/>
     <use xlink:href="#DejaVuSans-Bold-53" x="770.117188"/>
     <use xlink:href="#DejaVuSans-Bold-70" x="842.138672"/>
     <use xlink:href="#DejaVuSans-Bold-65" x="913.720703"/>
     <use xlink:href="#DejaVuSans-Bold-63" x="981.542969"/>
     <use xlink:href="#DejaVuSans-Bold-74" x="1040.820312"/>
     <use xlink:href="#DejaVuSans-Bold-72" x="1088.623047"/>
     <use xlink:href="#DejaVuSans-Bold-75" x="1137.939453"/>
     <use xlink:href="#DejaVuSans-Bold-6d" x="1209.130859"/>
    </g>
   </g>
  </g>
 </g>
 <defs>
  <clipPath id="pd86cc99568">
   <rect x="50.6" y="27.6" width="802.6" height="503.56"/>
  </clipPath>
 </defs>
</svg>
